<?xml version="1.0" standalone="yes"?>
<svg width="1154" height="235">
<path style="fill:#ffffff; stroke:none;" d="M0 0L0 235L1154 235L1154 0L0 0z"/>
<path style="fill:#ee4035; stroke:none;" d="M519 11L519 221L528 221L528 11L519 11z"/>
<path style="fill:#ccd1d8; stroke:none;" d="M869 14C870.769 14.7789 872.036 14.9124 874 15L874 83C876.599 76.8062 875 67.6858 875 61L875 14L869 14z"/>
<path style="fill:#f2f3f4; stroke:none;" d="M1014 15C1017.09 15.9808 1020.01 16.554 1023 18C1020.81 14.249 1018.04 13.9013 1014 15z"/>
<path style="fill:#c7ced8; stroke:none;" d="M864 16C865.943 16.6218 866.949 16.4358 869 16C867.057 15.3783 866.051 15.5642 864 16z"/>
<path style="fill:#e7ebef; stroke:none;" d="M913 24C917.36 17.1235 919.318 14.9329 928 17C925.635 14.2941 917.749 13.6615 915.089 16.6034C913.33 18.5492 913.216 21.5451 913 24z"/>
<path style="fill:#e0e4e9; stroke:none;" d="M579 16C577.741 20.2605 578 24.5774 578 29C579.44 25.5676 579 21.7002 579 18L639 18L639 26C640.213 23.1103 639.998 20.1259 640 17L602 17C594.409 17 586.422 17.7671 579 16z"/>
<path style="fill:#bdc7d3; stroke:none;" d="M861 17C862.248 17.6847 862.549 17.7488 864 18C862.752 17.3152 862.452 17.2512 861 17z"/>
<path style="fill:#c0c6d0; stroke:none;" d="M859.667 18.3333C859.222 18.7778 860.278 18.7222 860.333 18.6667C860.778 18.2223 859.722 18.2777 859.667 18.3333z"/>
<path style="fill:#cdd1d9; stroke:none;" d="M857.667 19.3333C857.222 19.778 858.278 19.7221 858.333 19.6667C858.778 19.2223 857.722 19.2777 857.667 19.3333z"/>
<path style="fill:#979dad; stroke:none;" d="M857 20L858 21L857 20z"/>
<path style="fill:#afb4c0; stroke:none;" d="M858 21C859.248 21.6846 859.549 21.7489 861 22C859.752 21.3152 859.452 21.2512 858 21z"/>
<path style="fill:#b6bac4; stroke:none;" d="M862.667 21.3333C862.222 21.778 863.278 21.7221 863.333 21.6667C863.778 21.2223 862.722 21.2777 862.667 21.3333z"/>
<path style="fill:#e4e6ea; stroke:none;" d="M587 22C588.506 22.6831 589.315 22.8259 591 23C589.494 22.3169 588.685 22.1741 587 22z"/>
<path style="fill:#dddfe4; stroke:none;" d="M603 22L603 81C604.981 76.2801 604 70.0801 604 65L604 36C604 31.4645 604.769 26.2151 603 22z"/>
<path style="fill:#dfe2e7; stroke:none;" d="M613 22L613 62C613 70.7076 612.344 79.6001 615 88C616.124 83.3038 614.062 77.8758 614.004 73C613.881 62.6698 614 52.331 614 42C614 35.3415 613.449 28.5129 615 22L613 22z"/>
<path style="fill:#e5e8ec; stroke:none;" d="M626 22C628.532 23.4221 631.191 24.2472 634 25C631.494 22.649 629.412 22.1844 626 22z"/>
<path style="fill:#acb1bc; stroke:none;" d="M864 22L865 23L864 22z"/>
<path style="fill:#e7eaee; stroke:none;" d="M1022 22C1019.56 23.7752 1017.98 24.5678 1015 25C1018.01 26.2121 1022.09 25.9078 1022 22z"/>
<path style="fill:#cecfd4; stroke:none;" d="M577 23L577 29C577.951 26.7147 577.951 25.2853 577 23z"/>
<path style="fill:#e7e8eb; stroke:none;" d="M384 24C386.052 24.8742 387.747 24.9528 390 25C387.948 24.1257 386.253 24.0472 384 24M455 24L455 28C455.71 26.2405 455.71 25.7595 455 24z"/>
<path style="fill:#ebebee; stroke:none;" d="M582 27C583.457 25.8965 583.896 25.4567 585 24C582.877 24.8992 582.899 24.8764 582 27z"/>
<path style="fill:#c1c3cb; stroke:none;" d="M865 24L865 86C867.085 81.031 866 74.3502 866 69L866 39C866 34.1914 866.875 28.4687 865 24z"/>
<path style="fill:#e1e2e6; stroke:none;" d="M581 27C579.988 29.3732 579.378 31.4492 579 34C578.438 32.1994 578.176 30.8782 578 29C576.935 31.5869 577.219 33.321 578 36C580.456 33.4109 581.811 30.5646 581 27z"/>
<path style="fill:#e7e8eb; stroke:none;" d="M288 28L288 37C289.256 34.0058 289.256 30.9941 288 28z"/>
<path style="fill:#edeef0; stroke:none;" d="M915 29C914.043 30.5165 913.613 31.3386 913 33C914.63 31.4853 915.163 31.1447 915 29z"/>
<path style="fill:#dde1e7; stroke:none;" d="M637 30L637 34C637.71 32.2405 637.71 31.7595 637 30z"/>
<path style="fill:#e9ecf0; stroke:none;" d="M866 30L866 82C867.661 78.0415 867 73.2603 867 69L867 44C867 39.4646 867.769 34.215 866 30z"/>
<path style="fill:#e7e8eb; stroke:none;" d="M152 31L152 43C153.512 39.3957 153.512 34.6043 152 31z"/>
<path style="fill:#e5e7eb; stroke:none;" d="M910.333 31.6667C910.278 31.7219 910.222 32.7779 910.667 32.3333C910.722 32.2776 910.778 31.2223 910.333 31.6667z"/>
<path style="fill:#dde1e6; stroke:none;" d="M640 32C639.455 33.6352 639.635 33.4549 638 34C640.033 34.7851 640.785 34.0335 640 32z"/>
<path style="fill:#e7e8eb; stroke:none;" d="M456 35L456 43C457.161 40.2302 457.161 37.7698 456 35M9 37L9 47C10.3457 43.793 10.3457 40.207 9 37M203 106C205.497 100.049 204 91.4203 204 85L204 38L259 38C254.785 36.2313 249.536 37 245 37L217 37C213.684 37 206.368 35.6492 204.028 38.6034C201.105 42.2938 203 52.4869 203 57L203 106M68 39L68 175C71.5069 166.643 69 153.06 69 144L69 74L69 51C69 47.0172 69.552 42.6987 68 39z"/>
<path style="fill:#e8e9ed; stroke:none;" d="M123 39C124.506 39.683 125.315 39.8259 127 40C125.494 39.317 124.685 39.1741 123 39z"/>
<path style="fill:#dde2e8; stroke:none;" d="M772 39C773.506 39.6831 774.315 39.8259 776 40C774.494 39.3169 773.685 39.1741 772 39z"/>
<path style="fill:#e5e7ea; stroke:none;" d="M657 40C658.248 40.6848 658.548 40.7488 660 41C658.752 40.3152 658.452 40.2512 657 40z"/>
<path style="fill:#e3e5e9; stroke:none;" d="M667 40C668.248 40.6847 668.549 40.7488 670 41C668.752 40.3152 668.452 40.2512 667 40z"/>
<path style="fill:#e4e6ea; stroke:none;" d="M709 40C710.248 40.6848 710.548 40.7488 712 41C710.752 40.3151 710.452 40.2512 709 40z"/>
<path style="fill:#d9dce1; stroke:none;" d="M752.667 40.3333C752.222 40.7779 753.278 40.7222 753.333 40.6667C753.778 40.2223 752.722 40.2777 752.667 40.3333z"/>
<path style="fill:#dfe0e5; stroke:none;" d="M756 40L756 50C758.297 49.3264 758.774 49.0347 760 47L757 48C757.81 45.271 757.979 42.8495 758 40L756 40z"/>
<path style="fill:#d8dbe1; stroke:none;" d="M769 40C770.248 40.6847 770.549 40.7488 772 41C770.752 40.3152 770.452 40.2512 769 40z"/>
<path style="fill:#dee0e5; stroke:none;" d="M777.667 40.3333C777.222 40.7779 778.278 40.7222 778.333 40.6667C778.778 40.2223 777.722 40.2777 777.667 40.3333z"/>
<path style="fill:#e1e3e7; stroke:none;" d="M818 40C819.506 40.6831 820.315 40.8259 822 41C820.494 40.317 819.685 40.1741 818 40z"/>
<path style="fill:#e0e2e6; stroke:none;" d="M828 40C829.248 40.6847 829.549 40.7488 831 41C829.751 40.3151 829.452 40.2512 828 40z"/>
<path style="fill:#e7e9ec; stroke:none;" d="M908 40C909.506 40.6831 910.315 40.8259 912 41C910.494 40.3169 909.685 40.1741 908 40z"/>
<path style="fill:#e4e6ea; stroke:none;" d="M918 40C919.248 40.6847 919.548 40.7488 921 41C919.752 40.3152 919.452 40.2512 918 40z"/>
<path style="fill:#e0e2e6; stroke:none;" d="M965 40C966.248 40.6847 966.549 40.7488 968 41C966.752 40.3151 966.452 40.2512 965 40z"/>
<path style="fill:#dfe1e5; stroke:none;" d="M975 40C976.506 40.6831 977.315 40.8259 979 41C977.494 40.317 976.685 40.1741 975 40z"/>
<path style="fill:#dddfe4; stroke:none;" d="M1022 40L1022 85C1023.66 81.0414 1023 76.2603 1023 72L1023 52C1023 48.0172 1023.55 43.6986 1022 40z"/>
<path style="fill:#e5e6ea; stroke:none;" d="M1056 40C1057.25 40.6848 1057.55 40.7487 1059 41C1057.75 40.3151 1057.45 40.2512 1056 40z"/>
<path style="fill:#e0e2e7; stroke:none;" d="M1107 40C1108.51 40.683 1109.32 40.8259 1111 41C1109.49 40.3169 1108.69 40.1741 1107 40z"/>
<path style="fill:#dfe1e6; stroke:none;" d="M1117 40C1118.25 40.6849 1118.55 40.7487 1120 41C1118.75 40.3151 1118.45 40.2512 1117 40z"/>
<path style="fill:#e5e7eb; stroke:none;" d="M706.667 41.3333C706.222 41.778 707.278 41.7221 707.333 41.6667C707.778 41.2223 706.722 41.2777 706.667 41.3333z"/>
<path style="fill:#d9dbe0; stroke:none;" d="M749 41C750.248 41.6848 750.548 41.7488 752 42C750.752 41.3152 750.452 41.2512 749 41z"/>
<path style="fill:#e0e3e7; stroke:none;" d="M815.667 41.3333C815.222 41.778 816.278 41.7221 816.333 41.6667C816.778 41.2224 815.722 41.2776 815.667 41.3333z"/>
<path style="fill:#f0f1f2; stroke:none;" d="M832 41C833.949 42.5733 835.588 43.2909 838 44C836.02 42.1158 834.69 41.5307 832 41z"/>
<path style="fill:#e0e3e8; stroke:none;" d="M962.667 41.3333C962.222 41.778 963.278 41.7221 963.333 41.6667C963.778 41.2224 962.722 41.2776 962.667 41.3333z"/>
<path style="fill:#e4e8ed; stroke:none;" d="M979 41C984.292 45.2081 991.589 44 998 44C992.751 41.7973 984.785 41.9794 979 41z"/>
<path style="fill:#dcdee4; stroke:none;" d="M1015.67 41.3333C1015.22 41.778 1016.28 41.7221 1016.33 41.6667C1016.78 41.2224 1015.72 41.2776 1015.67 41.3333z"/>
<path style="fill:#dfe1e6; stroke:none;" d="M1104.67 41.3333C1104.22 41.7778 1105.28 41.7222 1105.33 41.6667C1105.78 41.2222 1104.72 41.2778 1104.67 41.3333z"/>
<path style="fill:#d9dde3; stroke:none;" d="M747.667 42.3333C747.222 42.778 748.278 42.7221 748.333 42.6667C748.778 42.2223 747.722 42.2777 747.667 42.3333z"/>
<path style="fill:#e3e6ea; stroke:none;" d="M813.667 42.3333C813.222 42.7779 814.278 42.7222 814.333 42.6667C814.778 42.2223 813.722 42.2777 813.667 42.3333z"/>
<path style="fill:#d8dce2; stroke:none;" d="M966 43C969.412 44.1528 973.397 44.2061 977 45C973.578 42.0249 970.306 42.0108 966 43z"/>
<path style="fill:#e6eaee; stroke:none;" d="M1010 43C1011.94 43.6218 1012.95 43.4358 1015 43C1013.06 42.3783 1012.05 42.5642 1010 43z"/>
<path style="fill:#e2e4e9; stroke:none;" d="M1102.67 42.3333C1102.22 42.7778 1103.28 42.7223 1103.33 42.6667C1103.78 42.2222 1102.72 42.2777 1102.67 42.3333z"/>
<path style="fill:#ededf0; stroke:none;" d="M659 43C661.013 44.2247 662.659 44.6453 665 45C662.958 43.584 661.489 43.2549 659 43z"/>
<path style="fill:#ebedf0; stroke:none;" d="M711 43C713.816 44.5306 716.874 45.2832 720 46C717.237 43.41 714.732 43.0894 711 43z"/>
<path style="fill:#dadfe6; stroke:none;" d="M742 44C743.943 44.6218 744.949 44.4358 747 44C745.057 43.3783 744.051 43.5642 742 44z"/>
<path style="fill:#eceef1; stroke:none;" d="M760 47C762.357 45.8964 763.376 45.0436 765 43C762.643 44.1035 761.624 44.9565 760 47z"/>
<path style="fill:#ebedf1; stroke:none;" d="M810 45C811.58 44.3164 811.777 44.1952 813 43C811.42 43.6835 811.223 43.8049 810 45z"/>
<path style="fill:#dce0e5; stroke:none;" d="M820 43C822.862 44.3758 825.838 44.7486 829 45C826.111 43.2691 823.339 43.0708 820 43z"/>
<path style="fill:#eceff2; stroke:none;" d="M900 45C901.58 44.3164 901.777 44.1953 903 43C901.42 43.6835 901.223 43.8049 900 45z"/>
<path style="fill:#e0e3e8; stroke:none;" d="M910 43C912.052 43.8743 913.747 43.9528 916 44C913.948 43.1258 912.253 43.0472 910 43z"/>
<path style="fill:#e5e8ec; stroke:none;" d="M1055 44C1057.7 44.9688 1060.16 44.3528 1063 44C1060.19 42.8543 1057.93 43.3078 1055 44z"/>
<path style="fill:#f1f2f3; stroke:none;" d="M1073 43C1074.55 45.1357 1075.86 46.4511 1078 48C1076.68 45.3134 1075.69 44.324 1073 43z"/>
<path style="fill:#eaecf0; stroke:none;" d="M1099 45C1100.58 44.3164 1100.78 44.1953 1102 43C1100.42 43.6836 1100.22 43.8046 1099 45z"/>
<path style="fill:#dbdfe5; stroke:none;" d="M1109 43C1111.86 44.3758 1114.84 44.7486 1118 45C1115.11 43.2691 1112.34 43.0708 1109 43z"/>
<path style="fill:#eceef1; stroke:none;" d="M645 50C647.508 48.2047 649.205 46.5075 651 44C647.896 45.4821 646.482 46.896 645 50z"/>
<path style="fill:#e0e4ea; stroke:none;" d="M656 44C657.248 44.6847 657.549 44.7488 659 45C657.752 44.3151 657.452 44.2513 656 44z"/>
<path style="fill:#d0d0d5; stroke:none;" d="M660.667 44.3333C660.222 44.7779 661.278 44.7222 661.333 44.6667C661.778 44.2223 660.722 44.2777 660.667 44.3333z"/>
<path style="fill:#e4e6ea; stroke:none;" d="M816 45C817.659 45.4064 818.242 45.3086 820 45C818.191 44.4257 817.931 44.5347 816 45z"/>
<path style="fill:#eaedf0; stroke:none;" d="M838 44C839.549 46.1358 840.864 47.451 843 49C841.676 46.3134 840.687 45.3241 838 44z"/>
<path style="fill:#eaebee; stroke:none;" d="M906 45C907.659 45.4064 908.242 45.3086 910 45C908.191 44.4257 907.931 44.5347 906 45z"/>
<path style="fill:#e0e3e9; stroke:none;" d="M916 44C917.248 44.6847 917.549 44.7488 919 45C917.751 44.3151 917.452 44.2512 916 44z"/>
<path style="fill:#ecedf0; stroke:none;" d="M928 44C929.223 45.1951 929.42 45.3164 931 46C929.777 44.8048 929.58 44.6836 928 44z"/>
<path style="fill:#e6eaed; stroke:none;" d="M955 48C956.753 46.6697 957.67 45.7525 959 44C956.751 45.1536 956.154 45.751 955 48z"/>
<path style="fill:#dee3e9; stroke:none;" d="M998 44L998 48C998.71 46.2405 998.71 45.7595 998 44z"/>
<path style="fill:#e6e8ec; stroke:none;" d="M1005 48L1011 48C1009.23 47.2211 1007.96 47.0876 1006 47L1010 45C1007.09 44.1989 1005.96 45.2506 1005 48z"/>
<path style="fill:#e3e5ea; stroke:none;" d="M1105 45C1106.66 45.4064 1107.24 45.3086 1109 45C1107.19 44.4258 1106.93 44.5347 1105 45z"/>
<path style="fill:#e8ebee; stroke:none;" d="M1127 44C1128.22 45.1953 1128.42 45.3164 1130 46C1128.78 44.8047 1128.58 44.6836 1127 44z"/>
<path style="fill:#e4e7ec; stroke:none;" d="M665.667 45.3333C665.222 45.7779 666.278 45.7221 666.333 45.6667C666.778 45.2223 665.722 45.2777 665.667 45.3333z"/>
<path style="fill:#d9dbe1; stroke:none;" d="M739 45L740 49L746 48C743.948 47.1258 742.253 47.0472 740 47L742 46C740.752 45.3151 740.452 45.2512 739 45z"/>
<path style="fill:#dfe3e9; stroke:none;" d="M784.333 45.6667C784.278 45.7222 784.222 46.7778 784.667 46.3333C784.722 46.2777 784.778 45.2221 784.333 45.6667z"/>
<path style="fill:#e3e6eb; stroke:none;" d="M720 46L721 53C722.078 50.2267 721.663 48.4354 720 46z"/>
<path style="fill:#e1e6eb; stroke:none;" d="M765 47C767.839 47.9069 770.996 47.5692 774 48C771.028 45.7591 768.54 46.1683 765 47z"/>
<path style="fill:#dddee3; stroke:none;" d="M978.333 46.6667C978.278 46.7222 978.222 47.7777 978.667 47.3333C978.722 47.2776 978.778 46.2222 978.333 46.6667z"/>
<path style="fill:#e8ebef; stroke:none;" d="M785 47C786.655 60.0955 783.952 74.1964 787 87C787.978 83.8206 787.043 80.3493 787.004 77C786.905 68.6107 789.844 54.0908 785 47z"/>
<path style="fill:#eceef1; stroke:none;" d="M932 47C932.684 48.58 932.805 48.7772 934 50C933.316 48.42 933.195 48.2227 932 47z"/>
<path style="fill:#dbdde2; stroke:none;" d="M962.333 47.6667C962.278 47.7221 962.222 48.7778 962.667 48.3333C962.722 48.2777 962.778 47.2222 962.333 47.6667z"/>
<path style="fill:#e7e8eb; stroke:none;" d="M289 48L289 59C290.431 55.59 290.431 51.41 289 48z"/>
<path style="fill:#ebecee; stroke:none;" d="M669 48L670 52C670.553 49.9923 670.303 49.6676 669 48z"/>
<path style="fill:#dee2e7; stroke:none;" d="M746 48C748.442 60.9591 750.369 76.5724 745 89C748.461 86.7819 748.785 82.9708 748.961 79C749.343 70.3499 751.507 55.1577 746 48z"/>
<path style="fill:#dedee2; stroke:none;" d="M763.667 48.3333C763.222 48.7778 764.278 48.7222 764.333 48.6667C764.778 48.2222 763.722 48.2777 763.667 48.3333z"/>
<path style="fill:#e5e6ea; stroke:none;" d="M813.333 48.6667C813.278 48.722 813.222 49.7778 813.667 49.3333C813.722 49.2777 813.778 48.2222 813.333 48.6667z"/>
<path style="fill:#ebedf1; stroke:none;" d="M896 48C895.014 49.4786 895 49.2031 895 51C896.289 49.5572 896.401 49.7664 896 48z"/>
<path style="fill:#e2e3e7; stroke:none;" d="M979.333 48.6667C979.278 48.7221 979.222 49.7778 979.667 49.3333C979.722 49.2776 979.778 48.2222 979.333 48.6667z"/>
<path style="fill:#e0e1e6; stroke:none;" d="M988 48C988 49.7968 988.014 49.5215 989 51C992.011 49.325 994.58 49.0379 998 49C994.837 47.6726 991.414 48.0004 988 48z"/>
<path style="fill:#e6e8ec; stroke:none;" d="M1011 48L1012 51C1012.68 49.7515 1012.75 49.4517 1013 48L1011 48z"/>
<path style="fill:#e1e3e8; stroke:none;" d="M1102 48L1101 52C1102.15 50.3596 1102.39 49.9239 1102 48z"/>
<path style="fill:#e4e7eb; stroke:none;" d="M650.333 49.6667C650.278 49.7222 650.222 50.7778 650.667 50.3333C650.722 50.2777 650.778 49.2222 650.333 49.6667z"/>
<path style="fill:#ecedef; stroke:none;" d="M703 49L702 53C703.146 51.3596 703.393 50.924 703 49z"/>
<path style="fill:#f2f2f4; stroke:none;" d="M732 49C731.231 53.9226 728.878 55.631 724 56C729.321 58.2065 734.345 54.8145 732 49z"/>
<path style="fill:#dddee3; stroke:none;" d="M760 51C761.58 50.3164 761.777 50.1952 763 49C761.42 49.6836 761.223 49.8048 760 51z"/>
<path style="fill:#e2e5e9; stroke:none;" d="M805.333 49.6667C805.278 49.7221 805.222 50.7778 805.667 50.3333C805.722 50.2777 805.778 49.2222 805.333 49.6667z"/>
<path style="fill:#e0e3e8; stroke:none;" d="M953.333 49.6667C953.278 49.7221 953.222 50.7779 953.667 50.3333C953.722 50.2777 953.778 49.2222 953.333 49.6667z"/>
<path style="fill:#d7dee5; stroke:none;" d="M961 49L961 54C961.83 51.9697 961.83 51.0304 961 49z"/>
<path style="fill:#e1e4e9; stroke:none;" d="M1094.33 49.6667C1094.28 49.7222 1094.22 50.7778 1094.67 50.3333C1094.72 50.2777 1094.78 49.2224 1094.33 49.6667z"/>
<path style="fill:#e7e8eb; stroke:none;" d="M457 50L457 58C458.161 55.2302 458.161 52.7698 457 50z"/>
<path style="fill:#e3e7eb; stroke:none;" d="M681 50L681 53C681.696 51.4463 681.696 51.5537 681 50z"/>
<path style="fill:#dde3e9; stroke:none;" d="M776 50C777.548 62.2516 777 74.6543 777 87C780.101 79.6098 778.013 67.9982 778 60C777.994 56.2953 778.123 53.1077 776 50z"/>
<path style="fill:#e2e5e9; stroke:none;" d="M812.333 50.6667C812.278 50.7221 812.222 51.7778 812.667 51.3333C812.722 51.2776 812.778 50.2223 812.333 50.6667z"/>
<path style="fill:#dce0e6; stroke:none;" d="M980 50C980.497 56.2972 980.797 61.696 980 68C983.209 63.3031 982.891 54.8268 980 50z"/>
<path style="fill:#e3e5e8; stroke:none;" d="M649.333 51.6667C649.278 51.7222 649.222 52.7778 649.667 52.3333C649.722 52.2777 649.778 51.2222 649.333 51.6667z"/>
<path style="fill:#ebeef1; stroke:none;" d="M804 51C802.957 53.0953 802.397 54.6988 802 57C803.631 54.957 804.444 53.5829 804 51z"/>
<path style="fill:#e0e5ea; stroke:none;" d="M952 51C950.667 56.5996 950.75 61.6669 953 67C953.588 64.2144 952.42 61.8378 952.274 59C952.126 56.1266 952.981 53.735 952 51z"/>
<path style="fill:#eaedf0; stroke:none;" d="M1093 51C1091.96 53.0954 1091.4 54.6988 1091 57C1092.63 54.957 1093.44 53.583 1093 51z"/>
<path style="fill:#e9ebef; stroke:none;" d="M643 52L642 56C643.146 54.3596 643.393 53.924 643 52z"/>
<path style="fill:#e0e3e8; stroke:none;" d="M671 52L671 57C665.042 57 652.551 59.4766 649 54C648.317 55.506 648.174 56.3148 648 58L672 58C671.953 55.7472 671.874 54.0521 671 52z"/>
<path style="fill:#e5e7eb; stroke:none;" d="M694.333 52.6667C694.278 52.7222 694.222 53.7777 694.667 53.3333C694.722 53.2777 694.778 52.2222 694.333 52.6667z"/>
<path style="fill:#dcdfe5; stroke:none;" d="M811 52C809.54 59.8653 810.379 67.1285 811 75C812.581 71.123 811.029 67.0982 811.029 63C811.029 59.2312 812.39 55.5614 811 52z"/>
<path style="fill:#dfe1e6; stroke:none;" d="M901 52L901 55C901.696 53.4463 901.696 53.5537 901 52z"/>
<path style="fill:#dbdee4; stroke:none;" d="M1100 52C1098.21 61.6343 1099.04 70.6969 1102 80C1103.37 75.3614 1100.41 69.8425 1100.09 65C1099.81 60.6669 1101.58 56.0545 1100 52z"/>
<path style="fill:#e5e8eb; stroke:none;" d="M682 53L682 60L648 60L648 67C648.874 64.9479 648.953 63.2529 649 61L684 61C683.71 58.0506 683.497 55.5699 682 53z"/>
<path style="fill:#e3e7ec; stroke:none;" d="M701 53C699.307 60.1117 699.805 67.076 702 74C703.111 70.342 701.289 66.7717 701.105 63C700.936 59.5431 702.176 56.2779 701 53z"/>
<path style="fill:#dddcdf; stroke:none;" d="M757 53C755.968 62.3875 757 72.5059 757 82C759.292 76.5379 758 68.8867 758 63C758 59.5814 758.328 56.1655 757 53z"/>
<path style="fill:#f1f1f3; stroke:none;" d="M846 53C846.438 55.7434 846.779 57.3253 849 59C848.203 56.7111 847.455 54.9211 846 53z"/>
<path style="fill:#f0f1f3; stroke:none;" d="M1135 53C1135.44 55.7435 1135.78 57.3253 1138 59C1137.2 56.7111 1136.46 54.9212 1135 53z"/>
<path style="fill:#e7e8eb; stroke:none;" d="M153 54L153 66C154.512 62.3957 154.512 57.6043 153 54z"/>
<path style="fill:#e3e8ed; stroke:none;" d="M693 54C690.504 62.8814 690.504 71.1186 693 80C694.361 75.5612 691.957 70.6487 692.054 66C692.138 61.9453 694.184 57.9 693 54z"/>
<path style="fill:#e1e4e9; stroke:none;" d="M926 54L926 57C926.696 55.4462 926.696 55.5538 926 54M960 54L960 58C960.71 56.2405 960.71 55.7595 960 54z"/>
<path style="fill:#c7c7ce; stroke:none;" d="M961 54L961 58C961.71 56.2405 961.71 55.7595 961 54z"/>
<path style="fill:#a6aab5; stroke:none;" d="M991 54L991 62C992.161 59.2301 992.161 56.7699 991 54z"/>
<path style="fill:#dcdee3; stroke:none;" d="M1013 54L1013 84C1015.39 78.2931 1014 70.1537 1014 64C1014 60.5814 1014.33 57.1655 1013 54z"/>
<path style="fill:#cdd4dc; stroke:none;" d="M756 55L756 82C758.541 75.945 758.541 61.0549 756 55z"/>
<path style="fill:#c5c6cd; stroke:none;" d="M747 56L747 82C749.477 76.0971 749.477 61.9029 747 56z"/>
<path style="fill:#e5e7eb; stroke:none;" d="M1039 56L1039 59C1039.7 57.4463 1039.7 57.5537 1039 56z"/>
<path style="fill:#ebeef2; stroke:none;" d="M1071 56C1073.05 56.8743 1074.75 56.9528 1077 57C1074.95 56.1258 1073.25 56.0472 1071 56z"/>
<path style="fill:#e7e8eb; stroke:none;" d="M8 57L8 67C9.34572 63.793 9.34572 60.207 8 57z"/>
<path style="fill:#e4e6eb; stroke:none;" d="M641.333 57.6667C641.278 57.7222 641.222 58.7778 641.667 58.3333C641.722 58.2777 641.778 57.2222 641.333 57.6667z"/>
<path style="fill:#b2b4be; stroke:none;" d="M683.333 58.6667C683.278 58.7221 683.222 59.7779 683.667 59.3333C683.722 59.2777 683.778 58.2222 683.333 58.6667z"/>
<path style="fill:#e7ebef; stroke:none;" d="M837 58L838 69C839.549 65.3075 839.258 61.305 837 58z"/>
<path style="fill:#e5e7eb; stroke:none;" d="M891.333 58.6667C891.278 58.7222 891.222 59.7778 891.667 59.3333C891.722 59.2776 891.778 58.2222 891.333 58.6667z"/>
<path style="fill:#dfe1e6; stroke:none;" d="M900 58L900 67C901.256 64.0059 901.256 60.9941 900 58z"/>
<path style="fill:#e4e6ea; stroke:none;" d="M938 58L938 62C938.71 60.2404 938.71 59.7595 938 58z"/>
<path style="fill:#dde2e8; stroke:none;" d="M961 58C961.077 61.6495 961.578 64.6305 963 68C963.694 64.7077 962.461 61.0163 961 58z"/>
<path style="fill:#e2e7ec; stroke:none;" d="M1126 58L1127 68C1128.46 64.5162 1128.12 61.1081 1126 58z"/>
<path style="fill:#e1e4e9; stroke:none;" d="M848 59C848 64.7725 847.723 70.2785 847 76C849.905 71.7482 849.975 63.7066 848 59z"/>
<path style="fill:#dde0e6; stroke:none;" d="M1038 59C1037.56 64.5744 1037.56 69.4256 1038 75C1039.81 70.6812 1039.81 63.3188 1038 59z"/>
<path style="fill:#e4e8ed; stroke:none;" d="M1046 59L1046 65C1046.95 62.7147 1046.95 61.2853 1046 59z"/>
<path style="fill:#d0d0d5; stroke:none;" d="M1047 59L1047 65C1047.95 62.7147 1047.95 61.2853 1047 59z"/>
<path style="fill:#e1e4e9; stroke:none;" d="M1137 59C1137 65.9944 1136.01 72.1463 1135 79C1138.69 74.044 1139.38 64.6799 1137 59z"/>
<path style="fill:#f0f3f5; stroke:none;" d="M800 60L800 71C801.431 67.5901 801.431 63.4099 800 60z"/>
<path style="fill:#edeff2; stroke:none;" d="M1089 60C1089 68.2818 1088.82 75.579 1093 83C1093.62 79.2739 1091.17 75.7176 1090.47 72C1089.71 67.9838 1090.59 63.7794 1089 60z"/>
<path style="fill:#e3e5e9; stroke:none;" d="M640 61L640 74C641.591 70.2088 641.591 64.7912 640 61z"/>
<path style="fill:#e5e7eb; stroke:none;" d="M890 61L890 73C891.512 69.3958 891.512 64.6042 890 61z"/>
<path style="fill:#e0e4e9; stroke:none;" d="M990 61L990 65C991.073 63.1175 991.084 62.8625 990 61z"/>
<path style="fill:#e4e6ea; stroke:none;" d="M928 62L928 78C929.812 73.6811 929.812 66.3189 928 62z"/>
<path style="fill:#e7e8eb; stroke:none;" d="M458 65L458 73C459.161 70.2301 459.161 67.7699 458 65z"/>
<path style="fill:#e0e4e9; stroke:none;" d="M989.333 65.6667C989.278 65.722 989.222 66.7778 989.667 66.3333C989.722 66.2775 989.778 65.2222 989.333 65.6667z"/>
<path style="fill:#e9eaed; stroke:none;" d="M1047 65L1047 69C1047.71 67.2404 1047.71 66.7596 1047 65z"/>
<path style="fill:#e7e8ec; stroke:none;" d="M988 67C987.014 68.4786 987 68.2031 987 70C988.289 68.5571 988.401 68.7664 988 67z"/>
<path style="fill:#e7e8eb; stroke:none;" d="M8 68C9.76903 68.7789 11.0359 68.9124 13 69C11.2309 68.2211 9.96408 68.0876 8 68M149 68C150.769 68.7789 152.036 68.9124 154 69C152.231 68.2211 150.964 68.0876 149 68z"/>
<path style="fill:#eceff2; stroke:none;" d="M964 68C965.154 70.2489 965.751 70.8465 968 72C966.67 70.2475 965.753 69.3302 964 68z"/>
<path style="fill:#dfe3e9; stroke:none;" d="M979.333 68.6667C979.278 68.7221 979.222 69.7778 979.667 69.3333C979.722 69.2776 979.778 68.2222 979.333 68.6667z"/>
<path style="fill:#a5a9b4; stroke:none;" d="M1127 68L1127 72C1127.71 70.2403 1127.71 69.7596 1127 68z"/>
<path style="fill:#e5e7eb; stroke:none;" d="M649.333 69.6667C649.278 69.7222 649.222 70.7778 649.667 70.3333C649.722 70.2777 649.778 69.2222 649.333 69.6667z"/>
<path style="fill:#a3a7b3; stroke:none;" d="M838.333 69.6667C838.278 69.7222 838.222 70.7778 838.667 70.3333C838.722 70.2777 838.778 69.2221 838.333 69.6667z"/>
<path style="fill:#eceff2; stroke:none;" d="M901 69L901 74C901.83 71.9697 901.83 71.0304 901 69z"/>
<path style="fill:#e4e6ea; stroke:none;" d="M938 69L938 73C938.71 71.2404 938.71 70.7595 938 69z"/>
<path style="fill:#e3e4e8; stroke:none;" d="M800 71L801 77C801.889 74.492 801.495 73.185 800 71z"/>
<path style="fill:#e5e9ee; stroke:none;" d="M838 71L838 78C839.06 75.4657 839.059 73.5343 838 71z"/>
<path style="fill:#e9ebef; stroke:none;" d="M957 71C958.223 72.1952 958.42 72.3164 960 73C958.777 71.8048 958.58 71.6836 957 71z"/>
<path style="fill:#e2e6eb; stroke:none;" d="M976.667 71.3333C976.222 71.7779 977.278 71.7222 977.333 71.6667C977.778 71.2223 976.722 71.2777 976.667 71.3333z"/>
<path style="fill:#b4b8c3; stroke:none;" d="M681.667 72.3333C681.222 72.7779 682.278 72.7222 682.333 72.6667C682.778 72.2223 681.722 72.2777 681.667 72.3333z"/>
<path style="fill:#d8dce3; stroke:none;" d="M968 72C970.613 73.0977 973.164 72.9928 976 73C973.387 71.9023 970.835 72.0072 968 72z"/>
<path style="fill:#e9ebef; stroke:none;" d="M1078 74C1079.66 73.7924 1079.54 73.5046 1080 75C1080.96 73.2217 1080.77 72.9786 1079 72C1077.7 72.6497 1078 72.1469 1078 74z"/>
<path style="fill:#e4e8ec; stroke:none;" d="M1127 72L1126 81C1127.98 78.103 1128.36 75.2606 1127 72z"/>
<path style="fill:#e3e7eb; stroke:none;" d="M680 76C681.3 75.3501 681 75.8532 681 74C681.39 76.2206 681.335 77.754 681 80C682.759 77.6922 682.917 75.9076 683 73C680.636 73.4825 680.482 73.636 680 76z"/>
<path style="fill:#c9c9d0; stroke:none;" d="M683.333 73.6667C683.278 73.7221 683.222 74.7778 683.667 74.3333C683.722 74.2777 683.778 73.2222 683.333 73.6667z"/>
<path style="fill:#e5eaee; stroke:none;" d="M967 75C972.127 77.1516 977.897 75.6176 983 74C978.34 72.5849 972.031 74.9861 967 75z"/>
<path style="fill:#e5e7eb; stroke:none;" d="M902 74L902 77C902.696 75.4463 902.696 75.5537 902 74z"/>
<path style="fill:#eff1f4; stroke:none;" d="M960 80C962.256 78.0074 964.277 76.3098 967 75C963.007 73.7455 961.053 76.3707 960 80z"/>
<path style="fill:#b6b7c1; stroke:none;" d="M966 75L967 76L966 75z"/>
<path style="fill:#e5e7eb; stroke:none;" d="M1039 75L1039 78C1039.7 76.4463 1039.7 76.5537 1039 75z"/>
<path style="fill:#e1e4e8; stroke:none;" d="M846.333 76.6667C846.278 76.7221 846.222 77.7778 846.667 77.3333C846.722 77.2777 846.778 76.2221 846.333 76.6667z"/>
<path style="fill:#edeff2; stroke:none;" d="M802 77C802.397 79.3012 802.957 80.9046 804 83C804.444 80.4172 803.631 79.043 802 77z"/>
<path style="fill:#ebeef1; stroke:none;" d="M903 77C903.397 79.3012 903.957 80.9046 905 83C905.444 80.4172 904.63 79.0429 903 77z"/>
<path style="fill:#e8ebee; stroke:none;" d="M927 78L927 82C927.71 80.2405 927.71 79.7595 927 78z"/>
<path style="fill:#e4e7ec; stroke:none;" d="M814.333 80.6667C814.278 80.7221 814.222 81.7778 814.667 81.3333C814.722 81.2776 814.778 80.2223 814.333 80.6667z"/>
<path style="fill:#edeef2; stroke:none;" d="M959 80C959.684 81.5801 959.805 81.7771 961 83C960.316 81.42 960.195 81.2228 959 80z"/>
<path style="fill:#b6b9c2; stroke:none;" d="M757.333 82.6667C757.278 82.7222 757.222 83.7778 757.667 83.3333C757.722 83.2776 757.778 82.2223 757.333 82.6667z"/>
<path style="fill:#c3c5cc; stroke:none;" d="M787.333 82.6667C787.278 82.7221 787.222 83.7778 787.667 83.3333C787.722 83.2777 787.778 82.2222 787.333 82.6667z"/>
<path style="fill:#e4e6eb; stroke:none;" d="M926.333 82.6667C926.278 82.7221 926.222 83.7778 926.667 83.3333C926.722 83.2776 926.778 82.2222 926.333 82.6667z"/>
<path style="fill:#ebeef2; stroke:none;" d="M1055 82C1059.6 86.3092 1066.62 85.589 1072 83C1069.24 82.5044 1066.82 83.7512 1064 83.8526C1060.9 83.9638 1057.95 82.7799 1055 82z"/>
<path style="fill:#e0e3e8; stroke:none;" d="M602 83L602 87C602.71 85.2405 602.71 84.7595 602 83z"/>
<path style="fill:#e3e7ec; stroke:none;" d="M660 83C661.248 83.6847 661.549 83.7488 663 84C661.752 83.3152 661.452 83.2512 660 83z"/>
<path style="fill:#e3e7eb; stroke:none;" d="M663 84C666.35 85.4025 669.521 84.8279 673 84C669.84 83.0279 666.333 83.9316 663 84z"/>
<path style="fill:#e9ecf1; stroke:none;" d="M712 84C715.853 85.6167 720.007 84.9506 724 84C720.347 82.8763 715.881 83.9893 712 84z"/>
<path style="fill:#e4e7eb; stroke:none;" d="M816.333 83.6667C816.278 83.7222 816.222 84.7778 816.667 84.3333C816.722 84.2776 816.778 83.2223 816.333 83.6667z"/>
<path style="fill:#bcc6d3; stroke:none;" d="M875 83L875 87C875.71 85.2404 875.71 84.7596 875 83z"/>
<path style="fill:#f1f3f5; stroke:none;" d="M906 83C907.324 85.6866 908.313 86.6759 911 88C909.451 85.8643 908.136 84.5489 906 83z"/>
<path style="fill:#e0e4ea; stroke:none;" d="M952 83L952 88C952.83 85.9696 952.83 85.0304 952 83z"/>
<path style="fill:#dfe3e8; stroke:none;" d="M961 83C968.011 87.1999 981.831 85.6492 990 86C982.989 81.8002 969.169 83.3508 961 83z"/>
<path style="fill:#e4e7eb; stroke:none;" d="M1105.33 83.6667C1105.28 83.7223 1105.22 84.7776 1105.67 84.3333C1105.72 84.2779 1105.78 83.2223 1105.33 83.6667z"/>
<path style="fill:#dadce3; stroke:none;" d="M757 84L757 87C757.696 85.4463 757.696 85.5537 757 84z"/>
<path style="fill:#eeeff2; stroke:none;" d="M1012 85C1010.38 87.0436 1009.36 87.8965 1007 89C1010.18 90.0107 1012.73 88.4575 1012 85z"/>
<path style="fill:#c7ccd4; stroke:none;" d="M864.333 86.6667C864.278 86.7222 864.222 87.7777 864.667 87.3333C864.722 87.2777 864.778 86.2222 864.333 86.6667z"/>
<path style="fill:#e0e3e7; stroke:none;" d="M990.667 86.3333C990.222 86.778 991.278 86.7221 991.333 86.6667C991.778 86.2223 990.722 86.2778 990.667 86.3333z"/>
<path style="fill:#e2e3e7; stroke:none;" d="M1023 86C1024.74 89.1678 1026.44 89.7312 1030 90L1023 86z"/>
<path style="fill:#b1b6c2; stroke:none;" d="M876 87L877 88L876 87z"/>
<path style="fill:#e2e4e8; stroke:none;" d="M1108.67 87.3333C1108.22 87.7779 1109.28 87.7221 1109.33 87.6667C1109.78 87.2221 1108.72 87.2779 1108.67 87.3333z"/>
<path style="fill:#b9bfc8; stroke:none;" d="M863 88L864 89L863 88z"/>
<path style="fill:#a7acbb; stroke:none;" d="M877 88L878 89L877 88z"/>
<path style="fill:#f1f3f5; stroke:none;" d="M915 89C917.523 89.9903 919.358 89.6169 922 89C919.607 88.2592 917.507 88.6978 915 89z"/>
<path style="fill:#bec1c8; stroke:none;" d="M593 89C594.248 89.6847 594.549 89.7488 596 90C594.752 89.3152 594.452 89.2512 593 89z"/>
<path style="fill:#e2e3e6; stroke:none;" d="M596 89C597.248 89.6848 597.548 89.7488 599 90C597.752 89.3152 597.452 89.2512 596 89z"/>
<path style="fill:#e8e9ec; stroke:none;" d="M618 89C619.506 89.6831 620.315 89.8259 622 90C620.494 89.317 619.685 89.1741 618 89z"/>
<path style="fill:#bec1c8; stroke:none;" d="M622.667 89.3333C622.222 89.7779 623.278 89.7222 623.333 89.6667C623.778 89.2223 622.722 89.2777 622.667 89.3333z"/>
<path style="fill:#c0c3ca; stroke:none;" d="M740.667 89.3333C740.222 89.7779 741.278 89.7221 741.333 89.6667C741.778 89.2223 740.722 89.2777 740.667 89.3333z"/>
<path style="fill:#dadce1; stroke:none;" d="M742 89C743.248 89.6848 743.548 89.7488 745 90C743.752 89.3152 743.452 89.2512 742 89z"/>
<path style="fill:#dadbe0; stroke:none;" d="M760 89C761.248 89.6848 761.548 89.7488 763 90C761.752 89.3151 761.452 89.2512 760 89z"/>
<path style="fill:#babec6; stroke:none;" d="M763.667 89.3333C763.222 89.7778 764.278 89.7223 764.333 89.6667C764.778 89.2222 763.722 89.2777 763.667 89.3333z"/>
<path style="fill:#bec1c9; stroke:none;" d="M770.667 89.3333C770.222 89.7779 771.278 89.7221 771.333 89.6667C771.778 89.2223 770.722 89.2778 770.667 89.3333z"/>
<path style="fill:#dbdde1; stroke:none;" d="M772 89C773.248 89.6848 773.548 89.7488 775 90C773.752 89.3152 773.452 89.2512 772 89z"/>
<path style="fill:#d4d6db; stroke:none;" d="M790 89C791.769 89.7789 793.036 89.9124 795 90C793.231 89.2211 791.964 89.0876 790 89z"/>
<path style="fill:#e5e7eb; stroke:none;" d="M810.667 89.3333C810.222 89.7779 811.278 89.7222 811.333 89.6667C811.778 89.2223 810.722 89.2777 810.667 89.3333z"/>
<path style="fill:#dcdee3; stroke:none;" d="M823 89C824.506 89.6831 825.315 89.8259 827 90C825.494 89.317 824.685 89.1741 823 89z"/>
<path style="fill:#bdc0c7; stroke:none;" d="M858 89C859.769 89.7789 861.036 89.9124 863 90C861.231 89.2211 859.964 89.0876 858 89z"/>
<path style="fill:#bdc0c8; stroke:none;" d="M878 89C879.769 89.7789 881.036 89.9124 883 90C881.231 89.2211 879.964 89.0876 878 89z"/>
<path style="fill:#b2b7c0; stroke:none;" d="M1005 89L1005 92C1006.02 90.8606 1006.31 90.3884 1007 89L1005 89z"/>
<path style="fill:#e5e7eb; stroke:none;" d="M1099.67 89.3333C1099.22 89.7777 1100.28 89.7225 1100.33 89.6667C1100.78 89.2222 1099.72 89.2778 1099.67 89.3333z"/>
<path style="fill:#dcdee3; stroke:none;" d="M1112 89C1113.51 89.683 1114.31 89.8259 1116 90C1114.49 89.3169 1113.69 89.1741 1112 89z"/>
<path style="fill:#cdd1d8; stroke:none;" d="M592.333 90.6667C592.278 90.7222 592.222 91.7778 592.667 91.3333C592.722 91.2776 592.778 90.2223 592.333 90.6667z"/>
<path style="fill:#223e66; stroke:none;" d="M593 90C594.248 90.6847 594.549 90.7488 596 91C594.752 90.3152 594.452 90.2512 593 90z"/>
<path style="fill:#223f66; stroke:none;" d="M622.667 90.3333C622.222 90.7779 623.278 90.7222 623.333 90.6667C623.778 90.2223 622.722 90.2777 622.667 90.3333z"/>
<path style="fill:#b5bcc7; stroke:none;" d="M624.333 90.6667C624.278 90.7222 624.222 91.7778 624.667 91.3333C624.722 91.2777 624.778 90.2222 624.333 90.6667z"/>
<path style="fill:#858fa0; stroke:none;" d="M740.333 90.6667C740.278 90.7222 740.222 91.7778 740.667 91.3333C740.722 91.2777 740.778 90.2222 740.333 90.6667z"/>
<path style="fill:#556a86; stroke:none;" d="M741.333 90.6667C741.278 90.7222 741.222 91.7778 741.667 91.3333C741.722 91.2776 741.778 90.2222 741.333 90.6667z"/>
<path style="fill:#213760; stroke:none;" d="M763.667 90.3333C763.222 90.7778 764.278 90.7223 764.333 90.6667C764.778 90.2222 763.722 90.2777 763.667 90.3333z"/>
<path style="fill:#b4beca; stroke:none;" d="M765.333 90.6667C765.278 90.7221 765.222 91.7778 765.667 91.3333C765.722 91.2777 765.778 90.2222 765.333 90.6667z"/>
<path style="fill:#ccd0d8; stroke:none;" d="M769.333 90.6667C769.278 90.7221 769.222 91.7779 769.667 91.3333C769.722 91.2776 769.778 90.2222 769.333 90.6667z"/>
<path style="fill:#223f66; stroke:none;" d="M770.667 90.3333C770.222 90.7779 771.278 90.7221 771.333 90.6667C771.778 90.2223 770.722 90.2778 770.667 90.3333z"/>
<path style="fill:#536280; stroke:none;" d="M793.333 90.6667C793.278 90.722 793.222 91.7779 793.667 91.3333C793.722 91.2777 793.778 90.2222 793.333 90.6667z"/>
<path style="fill:#929eb0; stroke:none;" d="M794.333 90.6667C794.278 90.7222 794.222 91.7778 794.667 91.3333C794.722 91.2777 794.778 90.2222 794.333 90.6667z"/>
<path style="fill:#8f9cae; stroke:none;" d="M858.333 90.6667C858.278 90.7222 858.222 91.7777 858.667 91.3333C858.722 91.2776 858.778 90.2223 858.333 90.6667z"/>
<path style="fill:#536280; stroke:none;" d="M859.333 90.6667C859.278 90.7221 859.222 91.7777 859.667 91.3333C859.722 91.2777 859.778 90.2222 859.333 90.6667z"/>
<path style="fill:#627690; stroke:none;" d="M882.333 90.6667C882.278 90.7222 882.222 91.7778 882.667 91.3333C882.722 91.2777 882.778 90.2222 882.333 90.6667z"/>
<path style="fill:#ebedf1; stroke:none;" d="M955 90C955.691 91.3886 955.984 91.8605 957 93C957.047 90.6699 957.203 90.994 955 90z"/>
<path style="fill:#dee2e7; stroke:none;" d="M996.333 90.6667C996.278 90.7222 996.222 91.7778 996.667 91.3333C996.722 91.2777 996.778 90.2222 996.333 90.6667z"/>
<path style="fill:#65768e; stroke:none;" d="M1006.33 90.6667C1006.28 90.722 1006.22 91.7779 1006.67 91.3333C1006.72 91.2776 1006.78 90.2222 1006.33 90.6667z"/>
<path style="fill:#6c7e95; stroke:none;" d="M1029.33 90.6667C1029.28 90.7223 1029.22 91.7776 1029.67 91.3333C1029.72 91.2778 1029.78 90.2222 1029.33 90.6667z"/>
<path style="fill:#cbcdd3; stroke:none;" d="M1030.33 90.6667C1030.28 90.7222 1030.22 91.7778 1030.67 91.3333C1030.72 91.2777 1030.78 90.2224 1030.33 90.6667z"/>
<path style="fill:#e9ecef; stroke:none;" d="M1050 91C1056.03 95.4896 1063.7 94.3037 1070 91C1066.57 90.3882 1063.49 92.3851 1060 92.5255C1056.67 92.6594 1053.29 91.4431 1050 91z"/>
<path style="fill:#556884; stroke:none;" d="M593 91C594.248 91.6847 594.549 91.7488 596 92C594.752 91.3152 594.452 91.2512 593 91z"/>
<path style="fill:#dfe3e8; stroke:none;" d="M596 91C603.169 94.008 614.239 92 622 92C614.831 88.9919 603.761 91 596 91z"/>
<path style="fill:#556884; stroke:none;" d="M622.667 91.3333C622.222 91.7779 623.278 91.7222 623.333 91.6667C623.778 91.2223 622.722 91.2777 622.667 91.3333z"/>
<path style="fill:#dce0e6; stroke:none;" d="M742 91C747.959 93.5005 756.564 92 763 92C757.041 89.4995 748.436 91 742 91z"/>
<path style="fill:#53627f; stroke:none;" d="M763.667 91.3333C763.222 91.7778 764.278 91.7223 764.333 91.6667C764.778 91.2222 763.722 91.2777 763.667 91.3333z"/>
<path style="fill:#556884; stroke:none;" d="M770.667 91.3333C770.222 91.7779 771.278 91.7221 771.333 91.6667C771.778 91.2223 770.722 91.2778 770.667 91.3333z"/>
<path style="fill:#dce0e6; stroke:none;" d="M772 91C777.959 93.5005 786.564 92 793 92C787.041 89.4995 778.436 91 772 91z"/>
<path style="fill:#e0e5ea; stroke:none;" d="M814 91C816.308 92.7595 818.092 92.9172 821 93C818.748 91.9115 816.465 91.4813 814 91z"/>
<path style="fill:#e0e4e9; stroke:none;" d="M832 91C833.248 91.6848 833.548 91.7488 835 92C833.751 91.3151 833.452 91.2513 832 91z"/>
<path style="fill:#cbd2da; stroke:none;" d="M860 91C866.202 93.6026 875.298 92 882 92C875.798 89.3974 866.702 91 860 91z"/>
<path style="fill:#e4e7eb; stroke:none;" d="M922 91C923.248 91.6847 923.549 91.7488 925 92C923.751 91.3151 923.452 91.2512 922 91z"/>
<path style="fill:#d9dfe5; stroke:none;" d="M959 94C964.871 92.6021 970.097 93.7465 976 94L976 92C971.096 92 962.088 89.7659 959 94z"/>
<path style="fill:#dee2e7; stroke:none;" d="M1007 91C1013.2 93.6026 1022.3 92 1029 92C1022.8 89.3975 1013.7 91 1007 91z"/>
<path style="fill:#e0e3e9; stroke:none;" d="M1121 91C1122.25 91.6847 1122.55 91.7488 1124 92C1122.75 91.3151 1122.45 91.2512 1121 91z"/>
<path style="fill:#e3e7ec; stroke:none;" d="M655 92C659.667 94.7959 664.863 93.9537 670 93C665.846 91.3778 659.58 92.1936 655 92z"/>
<path style="fill:#e4e7ed; stroke:none;" d="M706 92C710.246 94.9004 715.179 93.895 720 93C716.016 91.4413 710.358 92.1751 706 92z"/>
<path style="fill:#e1e5eb; stroke:none;" d="M821 93C824.611 94.512 828.23 93.7 832 93C828.444 91.5495 824.754 92.7038 821 93z"/>
<path style="fill:#e4e8ed; stroke:none;" d="M906 92C909.461 93.6631 913.185 93.9212 917 94C913.54 92.337 909.815 92.0787 906 92z"/>
<path style="fill:#e3e7ec; stroke:none;" d="M917 92C918.769 92.7789 920.036 92.9124 922 93C920.231 92.2211 918.964 92.0876 917 92z"/>
<path style="fill:#dfe3e8; stroke:none;" d="M997 92L997 101C998.256 98.0058 998.256 94.9941 997 92z"/>
<path style="fill:#ebedf1; stroke:none;" d="M1105 92C1106.77 92.7789 1108.04 92.9124 1110 93C1108.23 92.2211 1106.96 92.0876 1105 92z"/>
<path style="fill:#e1e5eb; stroke:none;" d="M1110 93C1113.61 94.512 1117.23 93.7 1121 93C1117.44 91.5495 1113.75 92.7038 1110 93z"/>
<path style="fill:#b9bbc4; stroke:none;" d="M819.667 93.3333C819.222 93.7779 820.278 93.7222 820.333 93.6667C820.778 93.2223 819.722 93.2777 819.667 93.3333z"/>
<path style="fill:#b9bbc3; stroke:none;" d="M909.667 93.3333C909.222 93.778 910.278 93.7221 910.333 93.6667C910.778 93.2223 909.722 93.2777 909.667 93.3333z"/>
<path style="fill:#cdced3; stroke:none;" d="M917.667 93.3333C917.222 93.778 918.278 93.7221 918.333 93.6667C918.778 93.2223 917.722 93.2777 917.667 93.3333z"/>
<path style="fill:#b6b8c1; stroke:none;" d="M976 93C978.052 93.8743 979.747 93.9528 982 94C979.948 93.1258 978.253 93.0472 976 93z"/>
<path style="fill:#e7e7e9; stroke:none;" d="M982 93C985.092 94.3336 988.647 94.5758 992 95C988.891 92.8759 985.696 93.0106 982 93z"/>
<path style="fill:#babbc4; stroke:none;" d="M1108.67 93.3333C1108.22 93.7779 1109.28 93.7221 1109.33 93.6667C1109.78 93.2221 1108.72 93.2779 1108.67 93.3333z"/>
<path style="fill:#e2e5e9; stroke:none;" d="M993 96L993 101C993.83 98.9697 993.83 98.0303 993 96z"/>
<path style="fill:#e5e9ed; stroke:none;" d="M951 97C950.014 98.4784 950 98.2032 950 100C951.289 98.5572 951.401 98.7664 951 97z"/>
<path style="fill:#dbdde2; stroke:none;" d="M955 99L955 104C955.83 101.97 955.83 101.03 955 99z"/>
<path style="fill:#e3e5ea; stroke:none;" d="M996.333 101.667C996.278 101.722 996.222 102.778 996.667 102.333C996.722 102.278 996.778 101.222 996.333 101.667z"/>
<path style="fill:#dfe1e5; stroke:none;" d="M947 103L947 108C947.83 105.97 947.83 105.03 947 103z"/>
<path style="fill:#e7e8eb; stroke:none;" d="M307 104L307 109C307.83 106.969 307.83 106.03 307 104z"/>
<path style="fill:#eff0f2; stroke:none;" d="M336 104L336 130C338.477 124.097 338.477 109.903 336 104z"/>
<path style="fill:#dddfe4; stroke:none;" d="M958.667 106.333C958.222 106.778 959.278 106.722 959.333 106.667C959.778 106.222 958.722 106.278 958.667 106.333z"/>
<path style="fill:#dbdde2; stroke:none;" d="M960.667 107.333C960.222 107.778 961.278 107.722 961.333 107.667C961.778 107.222 960.722 107.278 960.667 107.333z"/>
<path style="fill:#eff1f4; stroke:none;" d="M948 108C950.299 112.426 954.204 114.145 959 115C955.693 112.257 951.693 110.223 948 108z"/>
<path style="fill:#e3e7ec; stroke:none;" d="M963 108C968.696 111.412 977.744 110.489 984 109C978.22 107.222 969.325 108.499 963 108z"/>
<path style="fill:#e6e7eb; stroke:none;" d="M985.667 112.333C985.222 112.778 986.278 112.722 986.333 112.667C986.778 112.222 985.722 112.278 985.667 112.333z"/>
<path style="fill:#e4e5e9; stroke:none;" d="M980 114C981.943 114.622 982.949 114.436 985 114C983.057 113.378 982.051 113.564 980 114z"/>
<path style="fill:#e7e8eb; stroke:none;" d="M203 181C205.497 175.049 204 166.42 204 160L204 116L245 116C236.643 112.493 223.059 114.999 214 115C211.197 115 206.025 114.082 204.028 116.603C201.221 120.148 203 129.68 203 134L203 181z"/>
<path style="fill:#e0e2e6; stroke:none;" d="M960 115C961.506 115.683 962.315 115.826 964 116C962.494 115.317 961.685 115.174 960 115z"/>
<path style="fill:#e1e2e6; stroke:none;" d="M976 115C977.248 115.685 977.548 115.749 979 116C977.752 115.315 977.451 115.251 976 115z"/>
<path style="fill:#eeeff2; stroke:none;" d="M965 116C967.89 117.213 970.874 116.998 974 117C971.11 115.787 968.126 116.002 965 116z"/>
<path style="fill:#e8e9ed; stroke:none;" d="M1036 125C1037.51 125.683 1038.31 125.826 1040 126C1038.49 125.317 1037.69 125.174 1036 125z"/>
<path style="fill:#e7e8eb; stroke:none;" d="M957 128C960.699 129.552 965.017 129 969 129L989 129C985.301 127.448 980.983 128 977 128L957 128M730 130C732.052 130.874 733.747 130.953 736 131C733.948 130.126 732.253 130.047 730 130z"/>
<path style="fill:#e9ebed; stroke:none;" d="M979 132C980.506 132.683 981.315 132.826 983 133C981.494 132.317 980.685 132.174 979 132z"/>
<path style="fill:#ebecef; stroke:none;" d="M337 134L337 138C337.71 136.24 337.71 135.759 337 134z"/>
<path style="fill:#e7e8eb; stroke:none;" d="M869 135C870.183 139.97 870 144.919 870 150C871.628 146.12 872.354 137.931 869 135z"/>
<path style="fill:#eff0f2; stroke:none;" d="M966 135L966 189C967.875 184.531 967 178.809 967 174L967 148C967 143.74 967.661 138.959 966 135z"/>
<path style="fill:#e7e8eb; stroke:none;" d="M269 141C270.769 141.779 272.036 141.912 274 142C272.231 141.221 270.964 141.088 269 141z"/>
<path style="fill:#e2e3e7; stroke:none;" d="M997 141L997 144C997.696 142.446 997.696 142.554 997 141z"/>
<path style="fill:#e7e8eb; stroke:none;" d="M756 144L755 150C757.093 148.176 757.039 146.529 756 144z"/>
<path style="fill:#eff0f2; stroke:none;" d="M846 149L846 164C847.74 159.852 847.74 153.148 846 149z"/>
<path style="fill:#dee0e5; stroke:none;" d="M997.333 149.667C997.278 149.722 997.222 150.778 997.667 150.333C997.722 150.278 997.778 149.222 997.333 149.667z"/>
<path style="fill:#eff0f2; stroke:none;" d="M1042 149L1042 191C1045.41 182.882 1043 169.797 1043 161C1043 157.017 1043.55 152.699 1042 149z"/>
<path style="fill:#ededf0; stroke:none;" d="M840 150C841.506 150.683 842.315 150.826 844 151C842.494 150.317 841.685 150.174 840 150z"/>
<path style="fill:#eff0f2; stroke:none;" d="M855 152C856.926 154.208 859.125 153.968 862 154L862 188C863.552 184.301 863 179.983 863 176L863 153C860.215 152.942 857.709 152.648 855 152z"/>
<path style="fill:#e7e8eb; stroke:none;" d="M870 185C873.511 176.633 871 163.076 871 154L881 154C878.366 152.895 873.142 151.934 871.028 154.603C869.376 156.689 870.001 160.531 870 163L870 185z"/>
<path style="fill:#e9ebed; stroke:none;" d="M1028 155C1029.51 155.683 1030.31 155.826 1032 156C1030.49 155.317 1029.69 155.174 1028 155z"/>
<path style="fill:#e7e8eb; stroke:none;" d="M698 156L698 161C698.83 158.97 698.83 158.03 698 156z"/>
<path style="fill:#eff0f2; stroke:none;" d="M709 157L709 168C710.431 164.59 710.431 160.41 709 157z"/>
<path style="fill:#e7e8eb; stroke:none;" d="M298 158L302 161C303.095 158.095 300.45 158.12 298 158z"/>
<path style="fill:#e2e3e7; stroke:none;" d="M983 160C984.249 160.685 984.548 160.749 986 161C984.752 160.315 984.452 160.251 983 160z"/>
<path style="fill:#e7e8eb; stroke:none;" d="M636 162C637.176 167.486 652.12 165 657 165C650.296 162.187 642.634 165.689 636 162z"/>
<path style="fill:#eff0f2; stroke:none;" d="M775 163L775 175C776.512 171.396 776.512 166.604 775 163z"/>
<path style="fill:#e7e8eb; stroke:none;" d="M586 166L586 175C587.256 172.006 587.256 168.994 586 166M1056 166L1056 171C1056.83 168.97 1056.83 168.03 1056 166M629 167L629 179C630.512 175.396 630.512 170.604 629 167M766 167L766 171C766.71 169.24 766.71 168.76 766 167M809 167L809 175C810.161 172.23 810.161 169.77 809 167z"/>
<path style="fill:#eff0f2; stroke:none;" d="M577 170L577 179C578.256 176.006 578.256 172.994 577 170z"/>
<path style="fill:#e7e8eb; stroke:none;" d="M800 171L800 181C801.346 177.793 801.346 174.207 800 171M1056 175L1056 179C1056.71 177.241 1056.71 176.759 1056 175z"/>
<path style="fill:#eff0f2; stroke:none;" d="M617 179L617 188C618.256 185.006 618.256 181.994 617 179z"/>
<path style="fill:#e8e9ed; stroke:none;" d="M178 180L178 185C178.83 182.97 178.83 182.03 178 180z"/>
<path style="fill:#e7e8eb; stroke:none;" d="M819 180L819 196C820.812 191.681 820.812 184.319 819 180M93 181L93 185C93.7102 183.241 93.7102 182.759 93 181z"/>
<path style="fill:#ebecef; stroke:none;" d="M67 182L67 186C67.7102 184.241 67.7102 183.759 67 182M976 186L976 190C976.71 188.24 976.71 187.76 976 186z"/>
<path style="fill:#e7e8eb; stroke:none;" d="M1115 190C1116.51 190.683 1117.32 190.826 1119 191C1117.49 190.317 1116.69 190.174 1115 190z"/>
<path style="fill:#ededf0; stroke:none;" d="M262 191C263.506 191.683 264.315 191.826 266 192C264.494 191.317 263.685 191.174 262 191z"/>
<path style="fill:#e7e8eb; stroke:none;" d="M213 192C217.215 193.769 222.464 193 227 193L256 193C251.785 191.231 246.536 192 242 192L213 192M731 192C733.052 192.874 734.747 192.953 737 193C734.948 192.126 733.253 192.047 731 192M957 193C958.769 193.779 960.036 193.912 962 194C960.231 193.221 958.964 193.088 957 193M981 193C982.648 193.924 984.175 194.449 986 195C984.46 193.197 983.402 193.168 981 193z"/>
<path style="fill:#eff0f2; stroke:none;" d="M393 194C397.724 195.982 403.91 195 409 195C404.276 193.018 398.09 194 393 194M1027 195C1033.2 197.603 1042.3 196 1049 196C1042.8 193.397 1033.7 195 1027 195z"/>
<path style="fill:#e7e8eb; stroke:none;" d="M592 196C594.052 196.874 595.747 196.953 598 197C595.948 196.126 594.253 196.047 592 196M645 196C647.613 197.098 650.164 196.993 653 197C650.387 195.902 647.836 196.007 645 196M724 196C727.959 197.661 732.737 197 737 197C733.041 195.339 728.263 196 724 196M783 196C785.332 196.985 787.457 196.981 790 197C787.668 196.015 785.543 196.019 783 196M830 196C832.332 196.985 834.457 196.981 837 197C834.668 196.015 832.543 196.019 830 196M1072 196C1074.33 196.985 1076.46 196.981 1079 197C1076.67 196.015 1074.54 196.019 1072 196M380 205C382.052 205.874 383.747 205.953 386 206C383.948 205.126 382.253 205.047 380 205M397 205C399.052 205.874 400.747 205.953 403 206C400.948 205.126 399.253 205.047 397 205z"/>
</svg>
